HIERARCHY
ROOT joint_Root
{
	OFFSET 0.0 0.0 0.0
	CHANNELS 6 Xposition Yposition Zposition Zrotation Xrotation Yrotation 
	JOINT Hips
	{
		OFFSET -0.726466 93.3139 -2.00062
		CHANNELS 6 Xposition Yposition Zposition Zrotation Xrotation Yrotation 
		JOINT Spine
		{
			OFFSET 15.7357 0.0 0.0
			CHANNELS 6 Xposition Yposition Zposition Zrotation Xrotation Yrotation 
			JOINT Chest
			{
				OFFSET 8.98455 -0.406207 0.0
				CHANNELS 6 Xposition Yposition Zposition Zrotation Xrotation Yrotation 
				JOINT Neck
				{
					OFFSET 16.3773 0.0 0.0
					CHANNELS 6 Xposition Yposition Zposition Zrotation Xrotation Yrotation 
					JOINT Head
					{
						OFFSET 6.45672 0.0 0.0
						CHANNELS 6 Xposition Yposition Zposition Zrotation Xrotation Yrotation 
						End Site
						{
							OFFSET 0.0 0.0 0.0
						}
					}
				}
				JOINT Shoulder_L
				{
					OFFSET 12.9942 -0.242716 4.98039
					CHANNELS 6 Xposition Yposition Zposition Zrotation Xrotation Yrotation 
					JOINT UpperArm_L
					{
						OFFSET 5.34809 0.0 0.0
						CHANNELS 6 Xposition Yposition Zposition Zrotation Xrotation Yrotation 
						JOINT LowerArm_L
						{
							OFFSET 24.3286 1.87007e-05 0.0
							CHANNELS 6 Xposition Yposition Zposition Zrotation Xrotation Yrotation 
							JOINT Hand_L
							{
								OFFSET 22.2916 0.0 0.0
								CHANNELS 6 Xposition Yposition Zposition Zrotation Xrotation Yrotation 
								End Site
								{
									OFFSET 0.0 0.0 0.0
								}
							}
						}
					}
				}
				JOINT Shoulder_R
				{
					OFFSET 12.9945 -0.242716 -4.98039
					CHANNELS 6 Xposition Yposition Zposition Zrotation Xrotation Yrotation 
					JOINT UpperArm_R
					{
						OFFSET -5.34813 0.0 0.0
						CHANNELS 6 Xposition Yposition Zposition Zrotation Xrotation Yrotation 
						JOINT LowerArm_R
						{
							OFFSET -24.3289 0.000322201 0.0
							CHANNELS 6 Xposition Yposition Zposition Zrotation Xrotation Yrotation 
							JOINT Hand_R
							{
								OFFSET -22.2915 -0.000108084 0.0
								CHANNELS 6 Xposition Yposition Zposition Zrotation Xrotation Yrotation 
								End Site
								{
									OFFSET 0.0 0.0 0.0
								}
							}
						}
					}
				}
			}
		}
		JOINT UpperLeg_L
		{
			OFFSET -2.19248 -6.46944 0.0
			CHANNELS 6 Xposition Yposition Zposition Zrotation Xrotation Yrotation 
			JOINT LowerLeg_L
			{
				OFFSET 39.0811 0.0 -1.23785e-05
				CHANNELS 6 Xposition Yposition Zposition Zrotation Xrotation Yrotation 
				JOINT Foot_L
				{
					OFFSET 40.9854 0.0 -1.26872e-05
					CHANNELS 6 Xposition Yposition Zposition Zrotation Xrotation Yrotation 
					JOINT Toes_L
					{
						OFFSET 11.7543 0.0 0.0
						CHANNELS 6 Xposition Yposition Zposition Zrotation Xrotation Yrotation 
						End Site
						{
							OFFSET 0.0 0.0 0.0
						}
					}
				}
			}
		}
		JOINT UpperLeg_R
		{
			OFFSET -2.19251 6.46944 0.0
			CHANNELS 6 Xposition Yposition Zposition Zrotation Xrotation Yrotation 
			JOINT LowerLeg_R
			{
				OFFSET -39.0811 -0.00228153 -0.0401928
				CHANNELS 6 Xposition Yposition Zposition Zrotation Xrotation Yrotation 
				JOINT Foot_R
				{
					OFFSET -40.9854 0.0 0.0
					CHANNELS 6 Xposition Yposition Zposition Zrotation Xrotation Yrotation 
					JOINT Toes_R
					{
						OFFSET -11.7543 0.0 0.0
						CHANNELS 6 Xposition Yposition Zposition Zrotation Xrotation Yrotation 
						End Site
						{
							OFFSET 0.0 0.0 0.0
						}
					}
				}
			}
		}
	}
}
MOTION
Frames:	4
Frame Time:	0.0333333
0.000000 0.000000 0.000000 0.000000 0.000000 -0.000000 -2.647000 92.029500 -1.803440 88.370800 -0.543172 3.999970 15.735700 0.000005 -0.000001 72.105500 84.743900 -67.185800 8.984550 -0.406207 -0.000000 2.409250 -3.456880 9.905090 16.377300 -0.000001 -0.000001 3.718670 -2.025710 -0.486828 6.456720 -0.000001 -0.000000 -1.189660 -2.904910 15.364300 12.994200 -0.242716 4.980390 -84.355000 -10.813700 -62.217800 5.348090 -0.000007 -0.000001 -61.624200 -59.060600 -90.387900 24.328600 0.000019 0.000005 0.869952 0.885900 -44.482800 22.291600 -0.000001 0.000005 22.799000 5.564000 -9.385330 12.994500 -0.242716 -4.980390 90.312800 -0.796044 -68.548300 -5.348130 -0.000001 -0.000004 -49.225700 70.317700 2.225060 -24.328900 0.000322 -0.000009 21.291100 0.308191 -89.210000 -22.291500 -0.000108 -0.000004 28.728600 5.676040 -23.756900 -2.192480 -6.469440 -0.000000 -168.367000 -17.007400 -2.494090 39.081100 -0.000007 -0.000012 -0.155358 0.412607 20.632900 40.985400 -0.000006 -0.000013 -8.055670 -2.429040 -61.635900 11.754300 -0.000000 0.000003 -0.000102 -0.001043 -16.617600 -2.192510 6.469440 -0.000001 174.696000 22.231300 178.617000 -39.081100 -0.002282 -0.040193 -0.094872 0.252634 21.239700 -40.985400 0.000008 0.000006 -4.019140 0.324821 -63.881500 -11.754300 -0.000006 -0.000006 -0.003247 -0.043366 -18.336800
0.000000 0.000000 0.000000 0.000000 0.000000 -0.000000 -2.698980 92.027700 -1.765000 88.389000 -0.369244 3.948130 15.735700 0.000005 -0.000001 72.660900 84.779900 -67.737000 8.984550 -0.406207 -0.000000 2.366120 -3.340440 9.909490 16.377300 -0.000001 -0.000001 3.691210 -2.117220 -0.280721 6.456720 -0.000001 -0.000000 -1.149710 -2.937180 15.283300 12.994200 -0.242716 4.980390 -84.465200 -10.703900 -62.447700 5.348090 -0.000007 -0.000001 -61.831200 -58.890200 -86.706100 24.328600 0.000019 0.000005 0.756608 0.829709 -42.359700 22.291600 -0.000001 0.000005 22.950600 5.558990 -9.137940 12.994500 -0.242716 -4.980390 90.325500 -0.825557 -68.482900 -5.348130 -0.000001 -0.000004 -49.528900 70.331400 2.442990 -24.328900 0.000322 -0.000009 21.276200 0.341592 -89.123600 -22.291500 -0.000108 -0.000004 28.844700 5.675820 -23.806200 -2.192480 -6.469440 -0.000000 -168.353000 -16.975800 -2.523940 39.081100 -0.000007 -0.000012 -0.155735 0.415340 20.554100 40.985400 -0.000006 -0.000013 -8.076670 -2.291300 -61.577600 11.754300 -0.000000 0.000003 -0.000095 -0.000986 -16.615400 -2.192510 6.469440 -0.000001 174.712000 22.290200 178.621000 -39.081100 -0.002282 -0.040193 -0.096958 0.257912 21.246300 -40.985400 0.000008 0.000006 -4.023880 0.232354 -63.951800 -11.754300 -0.000006 -0.000006 -0.003257 -0.043474 -18.341200
0.000000 0.000000 0.000000 0.000000 0.000000 -0.000000 -2.757430 92.022300 -1.698250 88.357600 -0.140721 3.958130 15.735700 0.000005 -0.000001 73.062200 84.781300 -68.131800 8.984550 -0.406207 -0.000000 2.382050 -3.269400 9.921690 16.377300 -0.000001 -0.000001 3.688880 -2.228630 -0.051409 6.456720 -0.000001 -0.000000 -1.101270 -3.023560 15.236200 12.994200 -0.242716 4.980390 -84.557000 -10.597900 -62.611700 5.348090 -0.000007 -0.000001 -61.425600 -58.679200 -82.625800 24.328600 0.000019 0.000005 0.354941 0.425339 -39.825700 22.291600 -0.000001 0.000005 23.421500 5.551380 -8.772170 12.994500 -0.242716 -4.980390 90.326900 -0.827820 -68.448500 -5.348130 -0.000001 -0.000004 -49.698900 70.342300 2.554720 -24.328900 0.000322 -0.000009 21.333000 0.359144 -89.081300 -22.291500 -0.000108 -0.000004 28.861500 5.675810 -23.808000 -2.192480 -6.469440 -0.000000 -168.274000 -16.899400 -2.514970 39.081100 -0.000007 -0.000012 -0.156181 0.416839 20.540100 40.985400 -0.000006 -0.000013 -8.092190 -2.098610 -61.566100 11.754300 -0.000000 0.000003 -0.000113 -0.001145 -16.621400 -2.192510 6.469440 -0.000001 174.771000 22.315800 178.712000 -39.081100 -0.002282 -0.040193 -0.095607 0.254612 21.233000 -40.985400 0.000008 0.000006 -4.046100 0.024090 -64.031700 -11.754300 -0.000006 -0.000006 -0.003101 -0.041737 -18.270500
0.000000 0.000000 0.000000 0.000000 0.000000 -0.000000 -2.793350 92.014200 -1.633690 88.363900 0.084271 3.933780 15.735700 0.000005 -0.000001 73.614300 84.801400 -68.695800 8.984550 -0.406207 -0.000000 2.366980 -3.161900 9.894830 16.377300 -0.000001 -0.000001 3.702160 -2.367540 0.212665 6.456720 -0.000001 -0.000000 -1.040750 -3.182870 15.133500 12.994200 -0.242716 4.980390 -84.598800 -10.582100 -62.758400 5.348090 -0.000007 -0.000001 -60.750000 -58.248300 -78.430900 24.328600 0.000019 0.000005 0.042275 0.056184 -36.856200 22.291600 -0.000001 0.000005 23.649400 5.545590 -8.499990 12.994500 -0.242716 -4.980390 90.337000 -0.851009 -68.392100 -5.348130 -0.000001 -0.000004 -49.843000 70.356300 2.585660 -24.328900 0.000322 -0.000009 21.367600 0.377358 -89.036400 -22.291500 -0.000108 -0.000004 28.813900 5.675950 -23.775800 -2.192480 -6.469440 -0.000000 -168.268000 -16.768100 -2.550690 39.081100 -0.000007 -0.000012 -0.155696 0.415583 20.538400 40.985400 -0.000006 -0.000013 -8.118430 -2.038480 -61.573300 11.754300 -0.000000 0.000003 -0.000098 -0.001011 -16.616400 -2.192510 6.469440 -0.000001 174.778000 22.343200 178.764000 -39.081100 -0.002282 -0.040193 -0.097481 0.259215 21.249500 -40.985400 0.000008 0.000006 -4.083430 -0.145309 -64.129100 -11.754300 -0.000006 -0.000006 -0.003310 -0.044064 -18.365200
